# xmcd
#
# Track frame offsets:
#	150
#	18527
#	32430
#	48872
#	60495
#	75920
#	98085
#	113382
#	130240
#	148755
#	163667
#	181217
#	195477
#	210932
#
# Disc length: 3005 seconds
#
# Revision: 3
# Processed by: cddbd v1.5.2PL0 Copyright (c) Steve Scherf et al.
# Submitted via: audiograbber 1.83.01
#
DISCID=a40bbb0e
DTITLE=Various Artist - New Country - October 1994
DYEAR=1994
DGENRE=Country
TTITLE0=Chris LeDoux - Honky Tonk World
TTITLE1=Little Texas - I'd Hold On To Her
TTITLE2=Michelle Wright - One Good Man
TTITLE3=Mark Chesnutt - Goin' Through The Big D
TTITLE4=Marcia Ball - Blue House
TTITLE5=Toby Keith - Who's That Man
TTITLE6=Bryan White - Eugene You Genius
TTITLE7=Terry McBride and The Ride - High Hopes And Empty Pockets
TTITLE8=George Ducas - Lipstick Promises
TTITLE9=John and Audrey Wiggins - Has Anybody Seen Amy
TTITLE10=Robert Earl Keen - Think It Over One Time
TTITLE11=Steve Kolander - Listen To Your Woman
TTITLE12=The Amazing Delores - Dixie Lee
TTITLE13=Greg Holland - Let Me Drive
EXTD=
EXTT0=
EXTT1=
EXTT2=
EXTT3=
EXTT4=
EXTT5=
EXTT6=
EXTT7=
EXTT8=
EXTT9=
EXTT10=
EXTT11=
EXTT12=
EXTT13=
PLAYORDER=
